%TF.GenerationSoftware,KiCad,Pcbnew,(5.1.10)-1*%
%TF.CreationDate,2021-10-12T11:10:30+01:00*%
%TF.ProjectId,RDH,5244482e-6b69-4636-9164-5f7063625858,rev?*%
%TF.SameCoordinates,Original*%
%TF.FileFunction,Copper,L4,Bot*%
%TF.FilePolarity,Positive*%
%FSLAX46Y46*%
G04 Gerber Fmt 4.6, Leading zero omitted, Abs format (unit mm)*
G04 Created by KiCad (PCBNEW (5.1.10)-1) date 2021-10-12 11:10:30*
%MOMM*%
%LPD*%
G01*
G04 APERTURE LIST*
%TA.AperFunction,SMDPad,CuDef*%
%ADD10C,1.000000*%
%TD*%
%TA.AperFunction,ComponentPad*%
%ADD11R,1.700000X1.700000*%
%TD*%
%TA.AperFunction,ComponentPad*%
%ADD12O,1.700000X1.700000*%
%TD*%
%TA.AperFunction,ComponentPad*%
%ADD13O,1.550000X0.890000*%
%TD*%
%TA.AperFunction,ComponentPad*%
%ADD14O,0.950000X1.250000*%
%TD*%
%TA.AperFunction,ComponentPad*%
%ADD15C,0.800000*%
%TD*%
%TA.AperFunction,ComponentPad*%
%ADD16C,6.400000*%
%TD*%
%TA.AperFunction,ComponentPad*%
%ADD17C,1.150000*%
%TD*%
%TA.AperFunction,ComponentPad*%
%ADD18R,1.150000X1.150000*%
%TD*%
%TA.AperFunction,ComponentPad*%
%ADD19C,1.200000*%
%TD*%
%TA.AperFunction,ComponentPad*%
%ADD20R,1.200000X1.200000*%
%TD*%
%TA.AperFunction,ComponentPad*%
%ADD21C,1.500000*%
%TD*%
%TA.AperFunction,SMDPad,CuDef*%
%ADD22C,0.100000*%
%TD*%
%TA.AperFunction,ViaPad*%
%ADD23C,0.600000*%
%TD*%
%TA.AperFunction,ViaPad*%
%ADD24C,0.800000*%
%TD*%
%TA.AperFunction,Conductor*%
%ADD25C,0.500000*%
%TD*%
%TA.AperFunction,Conductor*%
%ADD26C,0.200000*%
%TD*%
%TA.AperFunction,Conductor*%
%ADD27C,0.160000*%
%TD*%
%TA.AperFunction,Conductor*%
%ADD28C,1.000000*%
%TD*%
%TA.AperFunction,Conductor*%
%ADD29C,0.254000*%
%TD*%
%TA.AperFunction,Conductor*%
%ADD30C,0.100000*%
%TD*%
G04 APERTURE END LIST*
D10*
%TO.P,id,1*%
%TO.N,Net-(J4-Pad4)*%
X32600000Y-59800000D03*
%TD*%
D11*
%TO.P,J5,1*%
%TO.N,+3V3*%
X47250000Y-96000000D03*
D12*
%TO.P,J5,2*%
%TO.N,IR_TX*%
X44710000Y-96000000D03*
%TO.P,J5,3*%
%TO.N,IR_RX*%
X42170000Y-96000000D03*
%TO.P,J5,4*%
%TO.N,IR_SD*%
X39630000Y-96000000D03*
%TO.P,J5,5*%
%TO.N,GND*%
X37090000Y-96000000D03*
%TD*%
%TO.P,R22,2*%
%TO.N,Net-(D23-Pad2)*%
%TA.AperFunction,SMDPad,CuDef*%
G36*
G01*
X41762500Y-91650000D02*
X42237500Y-91650000D01*
G75*
G02*
X42475000Y-91887500I0J-237500D01*
G01*
X42475000Y-92462500D01*
G75*
G02*
X42237500Y-92700000I-237500J0D01*
G01*
X41762500Y-92700000D01*
G75*
G02*
X41525000Y-92462500I0J237500D01*
G01*
X41525000Y-91887500D01*
G75*
G02*
X41762500Y-91650000I237500J0D01*
G01*
G37*
%TD.AperFunction*%
%TO.P,R22,1*%
%TO.N,+3V3*%
%TA.AperFunction,SMDPad,CuDef*%
G36*
G01*
X41762500Y-89900000D02*
X42237500Y-89900000D01*
G75*
G02*
X42475000Y-90137500I0J-237500D01*
G01*
X42475000Y-90712500D01*
G75*
G02*
X42237500Y-90950000I-237500J0D01*
G01*
X41762500Y-90950000D01*
G75*
G02*
X41525000Y-90712500I0J237500D01*
G01*
X41525000Y-90137500D01*
G75*
G02*
X41762500Y-89900000I237500J0D01*
G01*
G37*
%TD.AperFunction*%
%TD*%
%TO.P,R21,2*%
%TO.N,GND*%
%TA.AperFunction,SMDPad,CuDef*%
G36*
G01*
X48150000Y-91137500D02*
X48150000Y-90662500D01*
G75*
G02*
X48387500Y-90425000I237500J0D01*
G01*
X48962500Y-90425000D01*
G75*
G02*
X49200000Y-90662500I0J-237500D01*
G01*
X49200000Y-91137500D01*
G75*
G02*
X48962500Y-91375000I-237500J0D01*
G01*
X48387500Y-91375000D01*
G75*
G02*
X48150000Y-91137500I0J237500D01*
G01*
G37*
%TD.AperFunction*%
%TO.P,R21,1*%
%TO.N,Net-(D22-Pad1)*%
%TA.AperFunction,SMDPad,CuDef*%
G36*
G01*
X46400000Y-91137500D02*
X46400000Y-90662500D01*
G75*
G02*
X46637500Y-90425000I237500J0D01*
G01*
X47212500Y-90425000D01*
G75*
G02*
X47450000Y-90662500I0J-237500D01*
G01*
X47450000Y-91137500D01*
G75*
G02*
X47212500Y-91375000I-237500J0D01*
G01*
X46637500Y-91375000D01*
G75*
G02*
X46400000Y-91137500I0J237500D01*
G01*
G37*
%TD.AperFunction*%
%TD*%
%TO.P,R19,2*%
%TO.N,IR_SD*%
%TA.AperFunction,SMDPad,CuDef*%
G36*
G01*
X38462500Y-91750000D02*
X38937500Y-91750000D01*
G75*
G02*
X39175000Y-91987500I0J-237500D01*
G01*
X39175000Y-92562500D01*
G75*
G02*
X38937500Y-92800000I-237500J0D01*
G01*
X38462500Y-92800000D01*
G75*
G02*
X38225000Y-92562500I0J237500D01*
G01*
X38225000Y-91987500D01*
G75*
G02*
X38462500Y-91750000I237500J0D01*
G01*
G37*
%TD.AperFunction*%
%TO.P,R19,1*%
%TO.N,Net-(D20-Pad1)*%
%TA.AperFunction,SMDPad,CuDef*%
G36*
G01*
X38462500Y-90000000D02*
X38937500Y-90000000D01*
G75*
G02*
X39175000Y-90237500I0J-237500D01*
G01*
X39175000Y-90812500D01*
G75*
G02*
X38937500Y-91050000I-237500J0D01*
G01*
X38462500Y-91050000D01*
G75*
G02*
X38225000Y-90812500I0J237500D01*
G01*
X38225000Y-90237500D01*
G75*
G02*
X38462500Y-90000000I237500J0D01*
G01*
G37*
%TD.AperFunction*%
%TD*%
%TO.P,REF\u002A\u002A,8*%
%TO.N,N/C*%
X31340000Y-89220000D03*
%TO.P,REF\u002A\u002A,7*%
X28800000Y-89220000D03*
%TO.P,REF\u002A\u002A,6*%
X31340000Y-86680000D03*
%TO.P,REF\u002A\u002A,5*%
X28800000Y-86680000D03*
%TO.P,REF\u002A\u002A,4*%
X31340000Y-84140000D03*
%TO.P,REF\u002A\u002A,3*%
X28800000Y-84140000D03*
%TO.P,REF\u002A\u002A,2*%
%TO.N,GND*%
X31340000Y-81600000D03*
D11*
%TO.P,REF\u002A\u002A,1*%
%TO.N,+3V3*%
X28800000Y-81600000D03*
%TD*%
%TO.P,R23,2*%
%TO.N,Net-(D24-Pad2)*%
%TA.AperFunction,SMDPad,CuDef*%
G36*
G01*
X33875000Y-78262500D02*
X33875000Y-78737500D01*
G75*
G02*
X33637500Y-78975000I-237500J0D01*
G01*
X33062500Y-78975000D01*
G75*
G02*
X32825000Y-78737500I0J237500D01*
G01*
X32825000Y-78262500D01*
G75*
G02*
X33062500Y-78025000I237500J0D01*
G01*
X33637500Y-78025000D01*
G75*
G02*
X33875000Y-78262500I0J-237500D01*
G01*
G37*
%TD.AperFunction*%
%TO.P,R23,1*%
%TO.N,ERROR_LED*%
%TA.AperFunction,SMDPad,CuDef*%
G36*
G01*
X35625000Y-78262500D02*
X35625000Y-78737500D01*
G75*
G02*
X35387500Y-78975000I-237500J0D01*
G01*
X34812500Y-78975000D01*
G75*
G02*
X34575000Y-78737500I0J237500D01*
G01*
X34575000Y-78262500D01*
G75*
G02*
X34812500Y-78025000I237500J0D01*
G01*
X35387500Y-78025000D01*
G75*
G02*
X35625000Y-78262500I0J-237500D01*
G01*
G37*
%TD.AperFunction*%
%TD*%
%TO.P,R20,2*%
%TO.N,Net-(D21-Pad2)*%
%TA.AperFunction,SMDPad,CuDef*%
G36*
G01*
X118750000Y-55237500D02*
X118750000Y-54762500D01*
G75*
G02*
X118987500Y-54525000I237500J0D01*
G01*
X119562500Y-54525000D01*
G75*
G02*
X119800000Y-54762500I0J-237500D01*
G01*
X119800000Y-55237500D01*
G75*
G02*
X119562500Y-55475000I-237500J0D01*
G01*
X118987500Y-55475000D01*
G75*
G02*
X118750000Y-55237500I0J237500D01*
G01*
G37*
%TD.AperFunction*%
%TO.P,R20,1*%
%TO.N,+12V*%
%TA.AperFunction,SMDPad,CuDef*%
G36*
G01*
X117000000Y-55237500D02*
X117000000Y-54762500D01*
G75*
G02*
X117237500Y-54525000I237500J0D01*
G01*
X117812500Y-54525000D01*
G75*
G02*
X118050000Y-54762500I0J-237500D01*
G01*
X118050000Y-55237500D01*
G75*
G02*
X117812500Y-55475000I-237500J0D01*
G01*
X117237500Y-55475000D01*
G75*
G02*
X117000000Y-55237500I0J237500D01*
G01*
G37*
%TD.AperFunction*%
%TD*%
%TO.P,R18,2*%
%TO.N,Net-(D19-Pad2)*%
%TA.AperFunction,SMDPad,CuDef*%
G36*
G01*
X88950000Y-55537500D02*
X88950000Y-55062500D01*
G75*
G02*
X89187500Y-54825000I237500J0D01*
G01*
X89762500Y-54825000D01*
G75*
G02*
X90000000Y-55062500I0J-237500D01*
G01*
X90000000Y-55537500D01*
G75*
G02*
X89762500Y-55775000I-237500J0D01*
G01*
X89187500Y-55775000D01*
G75*
G02*
X88950000Y-55537500I0J237500D01*
G01*
G37*
%TD.AperFunction*%
%TO.P,R18,1*%
%TO.N,+5V*%
%TA.AperFunction,SMDPad,CuDef*%
G36*
G01*
X87200000Y-55537500D02*
X87200000Y-55062500D01*
G75*
G02*
X87437500Y-54825000I237500J0D01*
G01*
X88012500Y-54825000D01*
G75*
G02*
X88250000Y-55062500I0J-237500D01*
G01*
X88250000Y-55537500D01*
G75*
G02*
X88012500Y-55775000I-237500J0D01*
G01*
X87437500Y-55775000D01*
G75*
G02*
X87200000Y-55537500I0J237500D01*
G01*
G37*
%TD.AperFunction*%
%TD*%
%TO.P,R17,2*%
%TO.N,Net-(D18-Pad2)*%
%TA.AperFunction,SMDPad,CuDef*%
G36*
G01*
X38950000Y-64962500D02*
X38950000Y-65437500D01*
G75*
G02*
X38712500Y-65675000I-237500J0D01*
G01*
X38137500Y-65675000D01*
G75*
G02*
X37900000Y-65437500I0J237500D01*
G01*
X37900000Y-64962500D01*
G75*
G02*
X38137500Y-64725000I237500J0D01*
G01*
X38712500Y-64725000D01*
G75*
G02*
X38950000Y-64962500I0J-237500D01*
G01*
G37*
%TD.AperFunction*%
%TO.P,R17,1*%
%TO.N,+3V3*%
%TA.AperFunction,SMDPad,CuDef*%
G36*
G01*
X40700000Y-64962500D02*
X40700000Y-65437500D01*
G75*
G02*
X40462500Y-65675000I-237500J0D01*
G01*
X39887500Y-65675000D01*
G75*
G02*
X39650000Y-65437500I0J237500D01*
G01*
X39650000Y-64962500D01*
G75*
G02*
X39887500Y-64725000I237500J0D01*
G01*
X40462500Y-64725000D01*
G75*
G02*
X40700000Y-64962500I0J-237500D01*
G01*
G37*
%TD.AperFunction*%
%TD*%
%TO.P,R16,2*%
%TO.N,OUT_4*%
%TA.AperFunction,SMDPad,CuDef*%
G36*
G01*
X81650000Y-90062500D02*
X81650000Y-90537500D01*
G75*
G02*
X81412500Y-90775000I-237500J0D01*
G01*
X80837500Y-90775000D01*
G75*
G02*
X80600000Y-90537500I0J237500D01*
G01*
X80600000Y-90062500D01*
G75*
G02*
X80837500Y-89825000I237500J0D01*
G01*
X81412500Y-89825000D01*
G75*
G02*
X81650000Y-90062500I0J-237500D01*
G01*
G37*
%TD.AperFunction*%
%TO.P,R16,1*%
%TO.N,Net-(D17-Pad2)*%
%TA.AperFunction,SMDPad,CuDef*%
G36*
G01*
X83400000Y-90062500D02*
X83400000Y-90537500D01*
G75*
G02*
X83162500Y-90775000I-237500J0D01*
G01*
X82587500Y-90775000D01*
G75*
G02*
X82350000Y-90537500I0J237500D01*
G01*
X82350000Y-90062500D01*
G75*
G02*
X82587500Y-89825000I237500J0D01*
G01*
X83162500Y-89825000D01*
G75*
G02*
X83400000Y-90062500I0J-237500D01*
G01*
G37*
%TD.AperFunction*%
%TD*%
%TO.P,R15,2*%
%TO.N,OUT_3*%
%TA.AperFunction,SMDPad,CuDef*%
G36*
G01*
X81825000Y-88362500D02*
X81825000Y-88837500D01*
G75*
G02*
X81587500Y-89075000I-237500J0D01*
G01*
X81012500Y-89075000D01*
G75*
G02*
X80775000Y-88837500I0J237500D01*
G01*
X80775000Y-88362500D01*
G75*
G02*
X81012500Y-88125000I237500J0D01*
G01*
X81587500Y-88125000D01*
G75*
G02*
X81825000Y-88362500I0J-237500D01*
G01*
G37*
%TD.AperFunction*%
%TO.P,R15,1*%
%TO.N,Net-(D16-Pad2)*%
%TA.AperFunction,SMDPad,CuDef*%
G36*
G01*
X83575000Y-88362500D02*
X83575000Y-88837500D01*
G75*
G02*
X83337500Y-89075000I-237500J0D01*
G01*
X82762500Y-89075000D01*
G75*
G02*
X82525000Y-88837500I0J237500D01*
G01*
X82525000Y-88362500D01*
G75*
G02*
X82762500Y-88125000I237500J0D01*
G01*
X83337500Y-88125000D01*
G75*
G02*
X83575000Y-88362500I0J-237500D01*
G01*
G37*
%TD.AperFunction*%
%TD*%
%TO.P,R14,2*%
%TO.N,OUT_2*%
%TA.AperFunction,SMDPad,CuDef*%
G36*
G01*
X81825000Y-86462500D02*
X81825000Y-86937500D01*
G75*
G02*
X81587500Y-87175000I-237500J0D01*
G01*
X81012500Y-87175000D01*
G75*
G02*
X80775000Y-86937500I0J237500D01*
G01*
X80775000Y-86462500D01*
G75*
G02*
X81012500Y-86225000I237500J0D01*
G01*
X81587500Y-86225000D01*
G75*
G02*
X81825000Y-86462500I0J-237500D01*
G01*
G37*
%TD.AperFunction*%
%TO.P,R14,1*%
%TO.N,Net-(D15-Pad2)*%
%TA.AperFunction,SMDPad,CuDef*%
G36*
G01*
X83575000Y-86462500D02*
X83575000Y-86937500D01*
G75*
G02*
X83337500Y-87175000I-237500J0D01*
G01*
X82762500Y-87175000D01*
G75*
G02*
X82525000Y-86937500I0J237500D01*
G01*
X82525000Y-86462500D01*
G75*
G02*
X82762500Y-86225000I237500J0D01*
G01*
X83337500Y-86225000D01*
G75*
G02*
X83575000Y-86462500I0J-237500D01*
G01*
G37*
%TD.AperFunction*%
%TD*%
%TO.P,R6,2*%
%TO.N,OUT_1*%
%TA.AperFunction,SMDPad,CuDef*%
G36*
G01*
X81850000Y-84562500D02*
X81850000Y-85037500D01*
G75*
G02*
X81612500Y-85275000I-237500J0D01*
G01*
X81037500Y-85275000D01*
G75*
G02*
X80800000Y-85037500I0J237500D01*
G01*
X80800000Y-84562500D01*
G75*
G02*
X81037500Y-84325000I237500J0D01*
G01*
X81612500Y-84325000D01*
G75*
G02*
X81850000Y-84562500I0J-237500D01*
G01*
G37*
%TD.AperFunction*%
%TO.P,R6,1*%
%TO.N,Net-(D14-Pad2)*%
%TA.AperFunction,SMDPad,CuDef*%
G36*
G01*
X83600000Y-84562500D02*
X83600000Y-85037500D01*
G75*
G02*
X83362500Y-85275000I-237500J0D01*
G01*
X82787500Y-85275000D01*
G75*
G02*
X82550000Y-85037500I0J237500D01*
G01*
X82550000Y-84562500D01*
G75*
G02*
X82787500Y-84325000I237500J0D01*
G01*
X83362500Y-84325000D01*
G75*
G02*
X83600000Y-84562500I0J-237500D01*
G01*
G37*
%TD.AperFunction*%
%TD*%
%TO.P,R5,2*%
%TO.N,Net-(D13-Pad2)*%
%TA.AperFunction,SMDPad,CuDef*%
G36*
G01*
X104275000Y-54237500D02*
X104275000Y-53762500D01*
G75*
G02*
X104512500Y-53525000I237500J0D01*
G01*
X105087500Y-53525000D01*
G75*
G02*
X105325000Y-53762500I0J-237500D01*
G01*
X105325000Y-54237500D01*
G75*
G02*
X105087500Y-54475000I-237500J0D01*
G01*
X104512500Y-54475000D01*
G75*
G02*
X104275000Y-54237500I0J237500D01*
G01*
G37*
%TD.AperFunction*%
%TO.P,R5,1*%
%TO.N,JRK_12V*%
%TA.AperFunction,SMDPad,CuDef*%
G36*
G01*
X102525000Y-54237500D02*
X102525000Y-53762500D01*
G75*
G02*
X102762500Y-53525000I237500J0D01*
G01*
X103337500Y-53525000D01*
G75*
G02*
X103575000Y-53762500I0J-237500D01*
G01*
X103575000Y-54237500D01*
G75*
G02*
X103337500Y-54475000I-237500J0D01*
G01*
X102762500Y-54475000D01*
G75*
G02*
X102525000Y-54237500I0J237500D01*
G01*
G37*
%TD.AperFunction*%
%TD*%
%TO.P,J9,1*%
%TO.N,MCO*%
X60100000Y-78200000D03*
%TD*%
%TO.P,J6,1*%
%TO.N,SWO*%
X55700000Y-63900000D03*
%TD*%
D13*
%TO.P,J4,6*%
%TO.N,USB_SHD*%
X26450000Y-60500000D03*
X26450000Y-53500000D03*
D14*
X29150000Y-59500000D03*
X29150000Y-54500000D03*
%TD*%
D15*
%TO.P,H4,1*%
%TO.N,GND*%
X84447056Y-93302944D03*
X82750000Y-92600000D03*
X81052944Y-93302944D03*
X80350000Y-95000000D03*
X81052944Y-96697056D03*
X82750000Y-97400000D03*
X84447056Y-96697056D03*
X85150000Y-95000000D03*
D16*
X82750000Y-95000000D03*
%TD*%
D15*
%TO.P,H3,1*%
%TO.N,GND*%
X75697056Y-53302944D03*
X74000000Y-52600000D03*
X72302944Y-53302944D03*
X71600000Y-55000000D03*
X72302944Y-56697056D03*
X74000000Y-57400000D03*
X75697056Y-56697056D03*
X76400000Y-55000000D03*
D16*
X74000000Y-55000000D03*
%TD*%
D15*
%TO.P,H2,1*%
%TO.N,GND*%
X31697056Y-93302944D03*
X30000000Y-92600000D03*
X28302944Y-93302944D03*
X27600000Y-95000000D03*
X28302944Y-96697056D03*
X30000000Y-97400000D03*
X31697056Y-96697056D03*
X32400000Y-95000000D03*
D16*
X30000000Y-95000000D03*
%TD*%
D15*
%TO.P,H1,1*%
%TO.N,GND*%
X31697056Y-65302944D03*
X30000000Y-64600000D03*
X28302944Y-65302944D03*
X27600000Y-67000000D03*
X28302944Y-68697056D03*
X30000000Y-69400000D03*
X31697056Y-68697056D03*
X32400000Y-67000000D03*
D16*
X30000000Y-67000000D03*
%TD*%
D10*
%TO.P,TP20,1*%
%TO.N,PC15*%
X44175000Y-78875000D03*
%TD*%
%TO.P,TP19,1*%
%TO.N,PB15*%
X56000000Y-79925000D03*
%TD*%
%TO.P,TP18,1*%
%TO.N,PB14*%
X52625000Y-82000000D03*
%TD*%
%TO.P,TP17,1*%
%TO.N,PB13*%
X57300000Y-83450000D03*
%TD*%
%TO.P,TP16,1*%
%TO.N,PB12*%
X54450000Y-83525000D03*
%TD*%
%TO.P,TP15,1*%
%TO.N,PB7*%
X51525000Y-70625000D03*
%TD*%
%TO.P,TP14,1*%
%TO.N,PB6*%
X53600000Y-69575000D03*
%TD*%
%TO.P,TP13,1*%
%TO.N,PB5*%
X53600000Y-71700000D03*
%TD*%
%TO.P,TP12,1*%
%TO.N,PB4*%
X56325000Y-71700000D03*
%TD*%
%TO.P,TP11,1*%
%TO.N,SWO*%
X52450000Y-73575000D03*
%TD*%
%TO.P,TP10,1*%
%TO.N,PB1*%
X47800000Y-81525000D03*
%TD*%
%TO.P,TP9,1*%
%TO.N,PB0*%
X47850000Y-83575000D03*
%TD*%
%TO.P,TP8,1*%
%TO.N,PA15*%
X54725000Y-73575000D03*
%TD*%
%TO.P,TP7,1*%
%TO.N,MCO*%
X53200000Y-79925000D03*
%TD*%
%TO.P,TP6,1*%
%TO.N,PA7*%
X41800000Y-84150000D03*
%TD*%
%TO.P,TP5,1*%
%TO.N,PA6*%
X39375000Y-85150000D03*
%TD*%
%TO.P,TP4,1*%
%TO.N,PA5*%
X37225000Y-86100000D03*
%TD*%
%TO.P,TP3,1*%
%TO.N,PA4*%
X39525000Y-88200000D03*
%TD*%
%TO.P,TP1,1*%
%TO.N,PA0*%
X45525000Y-80925000D03*
%TD*%
D17*
%TO.P,C5,2*%
%TO.N,GND*%
X113750000Y-64250000D03*
D18*
%TO.P,C5,1*%
%TO.N,+BATT*%
X111250000Y-64250000D03*
%TD*%
%TO.P,C7,1*%
%TO.N,+BATT*%
X95750000Y-64250000D03*
D17*
%TO.P,C7,2*%
%TO.N,GND*%
X98250000Y-64250000D03*
%TD*%
D19*
%TO.P,C9,2*%
%TO.N,GND*%
X122000000Y-65500000D03*
D20*
%TO.P,C9,1*%
%TO.N,+12V*%
X118500000Y-65500000D03*
%TD*%
D18*
%TO.P,C13,1*%
%TO.N,+BATT*%
X79500000Y-64250000D03*
D17*
%TO.P,C13,2*%
%TO.N,GND*%
X82000000Y-64250000D03*
%TD*%
D20*
%TO.P,C17,1*%
%TO.N,JRK_12V*%
X103000000Y-65500000D03*
D19*
%TO.P,C17,2*%
%TO.N,GND*%
X106500000Y-65500000D03*
%TD*%
D21*
%TO.P,J1,3*%
%TO.N,+5V*%
X87080000Y-52750000D03*
%TO.P,J1,2*%
%TO.N,GND*%
X84540000Y-52750000D03*
%TO.P,J1,1*%
%TO.N,+BATT*%
X82000000Y-52750000D03*
%TD*%
%TO.P,J2,1*%
%TO.N,+BATT*%
X112000000Y-52750000D03*
%TO.P,J2,2*%
%TO.N,GND*%
X114540000Y-52750000D03*
%TO.P,J2,3*%
%TO.N,+12V*%
X117080000Y-52750000D03*
%TD*%
%TO.P,J3,1*%
%TO.N,+BATT*%
X97000000Y-52750000D03*
%TO.P,J3,2*%
%TO.N,GND*%
X99540000Y-52750000D03*
%TO.P,J3,3*%
%TO.N,JRK_12V*%
X102080000Y-52750000D03*
%TD*%
D12*
%TO.P,J7,5*%
%TO.N,GND*%
X51660000Y-63000000D03*
%TO.P,J7,4*%
%TO.N,Net-(J7-Pad4)*%
X49120000Y-63000000D03*
%TO.P,J7,3*%
%TO.N,Net-(J7-Pad3)*%
X46580000Y-63000000D03*
%TO.P,J7,2*%
%TO.N,NRST*%
X44040000Y-63000000D03*
D11*
%TO.P,J7,1*%
%TO.N,+3V3*%
X41500000Y-63000000D03*
%TD*%
%TO.P,J8,1*%
%TO.N,+12V*%
X70500000Y-78000000D03*
D12*
%TO.P,J8,2*%
%TO.N,ENC_HV_BIT1*%
X73040000Y-78000000D03*
%TO.P,J8,3*%
%TO.N,Net-(J8-Pad3)*%
X70500000Y-80540000D03*
%TO.P,J8,4*%
%TO.N,ENC_HV_BIT3*%
X73040000Y-80540000D03*
%TO.P,J8,5*%
%TO.N,ENC_HV_BIT0*%
X70500000Y-83080000D03*
%TO.P,J8,6*%
%TO.N,ENC_HV_BIT5*%
X73040000Y-83080000D03*
%TO.P,J8,7*%
%TO.N,ENC_HV_BIT2*%
X70500000Y-85620000D03*
%TO.P,J8,8*%
%TO.N,ENC_HV_BIT7*%
X73040000Y-85620000D03*
%TO.P,J8,9*%
%TO.N,ENC_HV_BIT4*%
X70500000Y-88160000D03*
%TO.P,J8,10*%
%TO.N,ENC_HV_BIT9*%
X73040000Y-88160000D03*
%TO.P,J8,11*%
%TO.N,ENC_HV_BIT6*%
X70500000Y-90700000D03*
%TO.P,J8,12*%
%TO.N,Net-(J8-Pad12)*%
X73040000Y-90700000D03*
%TO.P,J8,13*%
%TO.N,ENC_HV_BIT8*%
X70500000Y-93240000D03*
%TO.P,J8,14*%
%TO.N,GND*%
X73040000Y-93240000D03*
%TD*%
D11*
%TO.P,J13,1*%
%TO.N,+3V3*%
X60960000Y-96012000D03*
D12*
%TO.P,J13,2*%
%TO.N,UART2_RX*%
X58420000Y-96012000D03*
%TO.P,J13,3*%
%TO.N,UART2_TX*%
X55880000Y-96012000D03*
%TO.P,J13,4*%
%TO.N,GND*%
X53340000Y-96012000D03*
%TD*%
%TA.AperFunction,SMDPad,CuDef*%
D22*
%TO.P,JP1,1*%
%TO.N,+3V3*%
G36*
X44950000Y-71750000D02*
G01*
X44450000Y-71750000D01*
X44450000Y-71749398D01*
X44425466Y-71749398D01*
X44376635Y-71744588D01*
X44328510Y-71735016D01*
X44281555Y-71720772D01*
X44236222Y-71701995D01*
X44192949Y-71678864D01*
X44152150Y-71651604D01*
X44114221Y-71620476D01*
X44079524Y-71585779D01*
X44048396Y-71547850D01*
X44021136Y-71507051D01*
X43998005Y-71463778D01*
X43979228Y-71418445D01*
X43964984Y-71371490D01*
X43955412Y-71323365D01*
X43950602Y-71274534D01*
X43950602Y-71250000D01*
X43950000Y-71250000D01*
X43950000Y-70750000D01*
X43950602Y-70750000D01*
X43950602Y-70725466D01*
X43955412Y-70676635D01*
X43964984Y-70628510D01*
X43979228Y-70581555D01*
X43998005Y-70536222D01*
X44021136Y-70492949D01*
X44048396Y-70452150D01*
X44079524Y-70414221D01*
X44114221Y-70379524D01*
X44152150Y-70348396D01*
X44192949Y-70321136D01*
X44236222Y-70298005D01*
X44281555Y-70279228D01*
X44328510Y-70264984D01*
X44376635Y-70255412D01*
X44425466Y-70250602D01*
X44450000Y-70250602D01*
X44450000Y-70250000D01*
X44950000Y-70250000D01*
X44950000Y-71750000D01*
G37*
%TD.AperFunction*%
%TA.AperFunction,SMDPad,CuDef*%
%TO.P,JP1,2*%
%TO.N,BOOT0*%
G36*
X45750000Y-70250602D02*
G01*
X45774534Y-70250602D01*
X45823365Y-70255412D01*
X45871490Y-70264984D01*
X45918445Y-70279228D01*
X45963778Y-70298005D01*
X46007051Y-70321136D01*
X46047850Y-70348396D01*
X46085779Y-70379524D01*
X46120476Y-70414221D01*
X46151604Y-70452150D01*
X46178864Y-70492949D01*
X46201995Y-70536222D01*
X46220772Y-70581555D01*
X46235016Y-70628510D01*
X46244588Y-70676635D01*
X46249398Y-70725466D01*
X46249398Y-70750000D01*
X46250000Y-70750000D01*
X46250000Y-71250000D01*
X46249398Y-71250000D01*
X46249398Y-71274534D01*
X46244588Y-71323365D01*
X46235016Y-71371490D01*
X46220772Y-71418445D01*
X46201995Y-71463778D01*
X46178864Y-71507051D01*
X46151604Y-71547850D01*
X46120476Y-71585779D01*
X46085779Y-71620476D01*
X46047850Y-71651604D01*
X46007051Y-71678864D01*
X45963778Y-71701995D01*
X45918445Y-71720772D01*
X45871490Y-71735016D01*
X45823365Y-71744588D01*
X45774534Y-71749398D01*
X45750000Y-71749398D01*
X45750000Y-71750000D01*
X45250000Y-71750000D01*
X45250000Y-70250000D01*
X45750000Y-70250000D01*
X45750000Y-70250602D01*
G37*
%TD.AperFunction*%
%TD*%
D23*
%TO.N,GND*%
X89500000Y-58700000D03*
X105000000Y-58700000D03*
X86000000Y-85100000D03*
X87800000Y-86900000D03*
X87800000Y-88700000D03*
X87900000Y-91000000D03*
D24*
X33500000Y-61500000D03*
X26250000Y-64500000D03*
X32000000Y-51500000D03*
X35500000Y-51500000D03*
X49000000Y-93000000D03*
X49000000Y-89750000D03*
X46250000Y-89750000D03*
D23*
X71750000Y-96500000D03*
X70250000Y-96500000D03*
X68750000Y-96500000D03*
X67250000Y-96500000D03*
X65750000Y-96500000D03*
X64250000Y-96500000D03*
D24*
X102750000Y-98000000D03*
X99500000Y-98000000D03*
X96250000Y-98000000D03*
X93000000Y-98000000D03*
X90250000Y-89750000D03*
X95000000Y-90800000D03*
X95000000Y-91800000D03*
X95000000Y-92800000D03*
X95000000Y-93800000D03*
X95000000Y-85750000D03*
X95000000Y-88800000D03*
X95000000Y-89800000D03*
X95000000Y-84750000D03*
X95000000Y-86750000D03*
X95000000Y-87750000D03*
X115000000Y-64250000D03*
X123250000Y-65500000D03*
X106500000Y-64250000D03*
X101000000Y-74750000D03*
X102000000Y-74750000D03*
X42750000Y-57000000D03*
X51750000Y-65250000D03*
X37000000Y-80750000D03*
X34250000Y-55250000D03*
X72750000Y-73000000D03*
X73000000Y-66000000D03*
X66250000Y-61500000D03*
X67500000Y-75000000D03*
X63750000Y-66000000D03*
X55650000Y-68750000D03*
X38500000Y-74750000D03*
X56750000Y-76000000D03*
X51750000Y-87250000D03*
X38250000Y-78750000D03*
X40594384Y-80750000D03*
X39817500Y-74432500D03*
X119000000Y-85750000D03*
X119000000Y-88250000D03*
X119000000Y-90750000D03*
X119000000Y-93250000D03*
X120500000Y-94750000D03*
X122250000Y-94750000D03*
X120500000Y-92000000D03*
X122250000Y-92000000D03*
X120500000Y-89500000D03*
X122250000Y-89500000D03*
X120500000Y-87000000D03*
X122250000Y-87000000D03*
X120500000Y-84250000D03*
X122250000Y-84250000D03*
X65250000Y-82500000D03*
X64000000Y-85500000D03*
X65250000Y-87500000D03*
X65250000Y-90000000D03*
X65250000Y-92500000D03*
X78250000Y-87500000D03*
X79500000Y-87500000D03*
X78250000Y-84750000D03*
X79500000Y-84750000D03*
X78250000Y-82250000D03*
X79500000Y-82250000D03*
X78250000Y-79750000D03*
X79500000Y-79750000D03*
X78250000Y-77250000D03*
X79500000Y-77250000D03*
X42000000Y-57750000D03*
X42000000Y-58750000D03*
X90000000Y-62000000D03*
X91750000Y-62000000D03*
X93000000Y-63000000D03*
X93000000Y-64000000D03*
X52000000Y-59500000D03*
X43750000Y-86750000D03*
X106500000Y-66750000D03*
X107750000Y-65500000D03*
X113750000Y-65500000D03*
X113750000Y-63000000D03*
X122000000Y-64250000D03*
X122000000Y-66750000D03*
X98250000Y-65500000D03*
X98250000Y-63000000D03*
X99500000Y-64250000D03*
X49750000Y-69250000D03*
X44500000Y-69500000D03*
X50500000Y-56500000D03*
X39000000Y-59250000D03*
X40750000Y-57000000D03*
X41750000Y-51750000D03*
X41750000Y-54500000D03*
X50500000Y-57750000D03*
X54750000Y-51250000D03*
X123500000Y-74250000D03*
X96200000Y-84750000D03*
X96200000Y-85750000D03*
X96200000Y-88800000D03*
X96200000Y-89800000D03*
X96200000Y-93800000D03*
X96200000Y-86750000D03*
X96200000Y-87750000D03*
X46200000Y-93000000D03*
X96200000Y-90800000D03*
X96200000Y-91800000D03*
X96200000Y-92800000D03*
X91100000Y-84800000D03*
X106250000Y-98000000D03*
X89250000Y-98000000D03*
X31250000Y-58750000D03*
D23*
X57800000Y-63400000D03*
X57800000Y-65400000D03*
X53700000Y-62900000D03*
X31550000Y-72550000D03*
X56500000Y-85500000D03*
X59800000Y-80900000D03*
X63100000Y-77000000D03*
X68000000Y-81100000D03*
X68000000Y-77000000D03*
X74900000Y-92100000D03*
X77600000Y-89500000D03*
X74900000Y-89500000D03*
D24*
%TO.N,+5V*%
X85000000Y-64000000D03*
X85000000Y-63000000D03*
X86250000Y-62000000D03*
X88000000Y-62000000D03*
X38500000Y-51500000D03*
X39500000Y-51500000D03*
X49100000Y-59000000D03*
X48400000Y-59900000D03*
D23*
%TO.N,+3V3*%
X40000000Y-91400000D03*
D24*
X41250000Y-73500000D03*
X88250000Y-94250000D03*
X88250000Y-85500000D03*
X41500000Y-65250000D03*
X36500000Y-83000000D03*
X68000000Y-64750000D03*
X60000000Y-73000000D03*
X43000000Y-71000000D03*
X45000000Y-60000000D03*
X46000000Y-60000000D03*
X37250000Y-77500000D03*
X55650000Y-70250000D03*
X56750000Y-74682500D03*
X45500000Y-87500000D03*
X53000000Y-87250000D03*
%TO.N,+BATT*%
X122250000Y-79250000D03*
X121250000Y-79250000D03*
X122250000Y-78250000D03*
X121250000Y-78250000D03*
X86500000Y-82500000D03*
X87500000Y-82500000D03*
X117750000Y-75250000D03*
X117750000Y-78250000D03*
X117750000Y-77250000D03*
X117750000Y-76250000D03*
X117000000Y-79000000D03*
X116000000Y-79000000D03*
X120625000Y-79875000D03*
%TO.N,+12V*%
X107625000Y-79125000D03*
X107000000Y-79750000D03*
X106375000Y-80375000D03*
X105750000Y-81000000D03*
X86500000Y-81000000D03*
X87500000Y-81000000D03*
%TO.N,JRK_12V*%
X94500000Y-74750000D03*
X93500000Y-74750000D03*
X101600000Y-54864000D03*
X102616000Y-54864000D03*
%TO.N,ENC_HV_BIT3*%
X50750000Y-80750000D03*
%TO.N,ENC_HV_BIT4*%
X67400000Y-87500000D03*
D23*
X48000000Y-87250000D03*
D24*
%TO.N,ENC_HV_BIT5*%
X56000000Y-87250000D03*
D23*
X49050000Y-87325000D03*
D24*
%TO.N,ENC_HV_BIT6*%
X67500000Y-90000000D03*
X58000000Y-82250000D03*
%TO.N,ENC_HV_BIT8*%
X58500000Y-80500000D03*
%TO.N,ENC_HV_BIT9*%
X57500000Y-79500000D03*
%TO.N,Net-(D11-Pad2)*%
X31000000Y-55500000D03*
X34250000Y-58750000D03*
D23*
%TO.N,IR_TX*%
X44710000Y-94110000D03*
%TO.N,IR_RX*%
X42300000Y-88700000D03*
D24*
%TO.N,IR_SD*%
X50000000Y-72000000D03*
D23*
%TO.N,PB0*%
X49100000Y-86450000D03*
%TO.N,PB1*%
X49875000Y-86275000D03*
%TO.N,PB4*%
X48250000Y-75750000D03*
%TO.N,PA0*%
X40400000Y-82175000D03*
%TO.N,PB5*%
X47850000Y-75025000D03*
%TO.N,PB6*%
X47025000Y-74925000D03*
%TO.N,PA4*%
X40553180Y-87600000D03*
%TO.N,PB7*%
X47250000Y-72000000D03*
%TO.N,PA5*%
X38275000Y-86475000D03*
%TO.N,PB12*%
X56350000Y-83150000D03*
%TO.N,PA6*%
X40050000Y-84300000D03*
%TO.N,PB13*%
X56875000Y-82225000D03*
%TO.N,PA7*%
X42750000Y-83650000D03*
%TO.N,PB14*%
X56150000Y-81900000D03*
%TO.N,PB15*%
X55375000Y-81675000D03*
%TO.N,PA15*%
X51600000Y-74825000D03*
%TO.N,PC15*%
X41150000Y-76825000D03*
D24*
%TO.N,UART2_RX*%
X43625000Y-85650000D03*
%TO.N,UART2_TX*%
X40750000Y-83250000D03*
%TO.N,BOOT0*%
X47000000Y-71000000D03*
D23*
%TO.N,ST_3-4*%
X49950000Y-75900000D03*
D24*
X89250000Y-91500000D03*
%TO.N,ST_1-2*%
X89250000Y-88250000D03*
D23*
X50900000Y-76000000D03*
D24*
%TO.N,OUT_1*%
X62000000Y-87500000D03*
X44750000Y-76217150D03*
D23*
X80900000Y-85700000D03*
%TO.N,OUT_2*%
X79400000Y-91100000D03*
D24*
X44250000Y-77250000D03*
X46750000Y-87250000D03*
D23*
X82000000Y-87500000D03*
D24*
%TO.N,OUT_3*%
X58500000Y-87750000D03*
X49750000Y-83250000D03*
D23*
X80173719Y-89426281D03*
D24*
%TO.N,OUT_4*%
X55000000Y-85500000D03*
D23*
X50775000Y-75000000D03*
X80109980Y-90390020D03*
%TO.N,Net-(J4-Pad4)*%
X31600000Y-57700000D03*
%TO.N,SWO*%
X52900000Y-73400000D03*
X48750000Y-76450000D03*
%TO.N,MCO*%
X55950000Y-78925000D03*
D24*
%TO.N,Net-(JP6-Pad2)*%
X94600000Y-95000000D03*
X96600000Y-95000000D03*
X95600000Y-95000000D03*
X99600000Y-91000000D03*
X98600000Y-92000000D03*
X99600000Y-92000000D03*
X98600000Y-91000000D03*
X98600000Y-93000000D03*
X99600000Y-93000000D03*
X99600000Y-86000000D03*
X98600000Y-86000000D03*
X98600000Y-87000000D03*
X99600000Y-87000000D03*
X99600000Y-88000000D03*
X98600000Y-88000000D03*
X98600000Y-89000000D03*
X99600000Y-89000000D03*
X100600000Y-94000000D03*
X99600000Y-94000000D03*
X98600000Y-94000000D03*
X97600000Y-87000000D03*
X97600000Y-86000000D03*
X97600000Y-89000000D03*
X97600000Y-88000000D03*
X99600000Y-90000000D03*
X98600000Y-90000000D03*
X97600000Y-91000000D03*
X97600000Y-93000000D03*
X97600000Y-92000000D03*
X100600000Y-95000000D03*
X97600000Y-95000000D03*
X98600000Y-95000000D03*
X99600000Y-95000000D03*
X97600000Y-94000000D03*
X97600000Y-90000000D03*
X100600000Y-90000000D03*
X97600000Y-85000000D03*
X100600000Y-85000000D03*
X99600000Y-85000000D03*
X98600000Y-85000000D03*
X97600000Y-84000000D03*
X98600000Y-84000000D03*
X99600000Y-84000000D03*
X100600000Y-84000000D03*
D23*
%TO.N,Net-(D13-Pad2)*%
X104800000Y-55000000D03*
%TO.N,Net-(D14-Pad2)*%
X83900000Y-85000000D03*
%TO.N,Net-(D15-Pad2)*%
X83900000Y-86800000D03*
%TO.N,Net-(D16-Pad2)*%
X83900000Y-88600000D03*
%TO.N,Net-(D17-Pad2)*%
X83900000Y-90100000D03*
%TO.N,Net-(D18-Pad2)*%
X36700000Y-64000000D03*
%TO.N,Net-(D19-Pad2)*%
X89475000Y-56275000D03*
%TO.N,Net-(D20-Pad1)*%
X38000000Y-89600000D03*
%TO.N,Net-(D21-Pad2)*%
X120100000Y-55800000D03*
%TO.N,Net-(D22-Pad1)*%
X46000000Y-90900000D03*
%TO.N,Net-(D23-Pad2)*%
X42600000Y-91600000D03*
%TO.N,Net-(D24-Pad2)*%
X32900000Y-76800000D03*
%TO.N,ERROR_LED*%
X44400000Y-81942932D03*
%TD*%
D25*
%TO.N,GND*%
X48675000Y-90075000D02*
X49000000Y-89750000D01*
X48675000Y-90900000D02*
X48675000Y-90075000D01*
%TO.N,+5V*%
X87725000Y-53395000D02*
X87080000Y-52750000D01*
X87725000Y-55300000D02*
X87725000Y-53395000D01*
D26*
%TO.N,+3V3*%
X43000000Y-71000000D02*
X44450000Y-71000000D01*
D27*
X41450000Y-65200000D02*
X41500000Y-65250000D01*
X40175000Y-65200000D02*
X41450000Y-65200000D01*
X40975000Y-90425000D02*
X40000000Y-91400000D01*
X42000000Y-90425000D02*
X40975000Y-90425000D01*
D28*
%TO.N,+BATT*%
X86500000Y-82500000D02*
X86500000Y-82500000D01*
X87500000Y-82500000D02*
X86500000Y-82500000D01*
X118000000Y-82500000D02*
X120625000Y-79875000D01*
X87500000Y-82500000D02*
X118000000Y-82500000D01*
X121250000Y-79250000D02*
X122250000Y-79250000D01*
X122250000Y-79250000D02*
X122250000Y-78250000D01*
X121250000Y-78250000D02*
X122250000Y-78250000D01*
X121250000Y-78250000D02*
X121250000Y-79250000D01*
X120625000Y-79875000D02*
X120625000Y-79875000D01*
X120625000Y-79875000D02*
X122250000Y-78250000D01*
D25*
%TO.N,+12V*%
X70500000Y-78000000D02*
X79500000Y-69000000D01*
X115000000Y-69000000D02*
X118500000Y-65500000D01*
X89500000Y-69000000D02*
X88000000Y-69000000D01*
X79500000Y-69000000D02*
X89500000Y-69000000D01*
X89500000Y-69000000D02*
X115000000Y-69000000D01*
D28*
X105750000Y-81000000D02*
X106375000Y-80375000D01*
X86500000Y-81000000D02*
X86500000Y-81000000D01*
X107000000Y-79750000D02*
X107625000Y-79125000D01*
X106375000Y-80375000D02*
X107000000Y-79750000D01*
X105750000Y-81000000D02*
X105750000Y-81000000D01*
X86500000Y-81000000D02*
X87500000Y-81000000D01*
X87500000Y-81000000D02*
X105750000Y-81000000D01*
D25*
X117525000Y-53195000D02*
X117080000Y-52750000D01*
X117525000Y-55000000D02*
X117525000Y-53195000D01*
%TO.N,JRK_12V*%
X103050000Y-53720000D02*
X102080000Y-52750000D01*
X103050000Y-54000000D02*
X103050000Y-53720000D01*
D27*
%TO.N,ENC_HV_BIT3*%
X71949999Y-81630001D02*
X73040000Y-80540000D01*
X59065104Y-76640020D02*
X61472566Y-76640020D01*
X71949999Y-83243203D02*
X71949999Y-81630001D01*
X58385105Y-77320019D02*
X59065104Y-76640020D01*
X54279981Y-77320019D02*
X58385105Y-77320019D01*
X70943202Y-84250000D02*
X71949999Y-83243203D01*
X61472566Y-76640020D02*
X69082546Y-84250000D01*
X52700000Y-78900000D02*
X54279981Y-77320019D01*
X52600000Y-78900000D02*
X52700000Y-78900000D01*
X69082546Y-84250000D02*
X70943202Y-84250000D01*
X50750000Y-80750000D02*
X52600000Y-78900000D01*
D26*
%TO.N,ENC_HV_BIT4*%
X67400000Y-87500000D02*
X66699999Y-88200001D01*
X50891398Y-88500000D02*
X66400000Y-88500000D01*
X50341378Y-87949980D02*
X50891398Y-88500000D01*
X66400000Y-88500000D02*
X67400000Y-87500000D01*
X48699980Y-87949980D02*
X50341378Y-87949980D01*
X48000000Y-87250000D02*
X48000000Y-87250000D01*
X48000000Y-87250000D02*
X48000000Y-87250000D01*
X48000000Y-87250000D02*
X48699980Y-87949980D01*
%TO.N,ENC_HV_BIT5*%
X55299999Y-87950001D02*
X56000000Y-87250000D01*
X53450001Y-87950001D02*
X55299999Y-87950001D01*
X53799999Y-87950001D02*
X53450001Y-87950001D01*
X49050000Y-87250000D02*
X48975000Y-87175000D01*
X53450001Y-87950001D02*
X50907097Y-87950001D01*
D27*
X49125000Y-87250000D02*
X49050000Y-87325000D01*
X50207096Y-87250000D02*
X49125000Y-87250000D01*
D26*
X50907097Y-87950001D02*
X50207096Y-87250000D01*
%TO.N,ENC_HV_BIT6*%
X64486003Y-83200001D02*
X58950001Y-83200001D01*
X68100001Y-86813999D02*
X64486003Y-83200001D01*
X68100001Y-89399999D02*
X68100001Y-86813999D01*
X67500000Y-90000000D02*
X68100001Y-89399999D01*
X58950001Y-83200001D02*
X58000000Y-82250000D01*
%TO.N,ENC_HV_BIT8*%
X68500011Y-84714009D02*
X63786002Y-80000000D01*
X68500011Y-91240011D02*
X68500011Y-84714009D01*
X70500000Y-93240000D02*
X68500011Y-91240011D01*
X58500000Y-80500000D02*
X58500000Y-80500000D01*
X58500000Y-80500000D02*
X59000000Y-80000000D01*
X63786002Y-80000000D02*
X59000000Y-80000000D01*
D27*
%TO.N,ENC_HV_BIT9*%
X68581701Y-84230001D02*
X68581701Y-84256701D01*
X63766848Y-79500000D02*
X69250000Y-84983152D01*
X57500000Y-79500000D02*
X63766848Y-79500000D01*
X69250000Y-85983202D02*
X70016798Y-86750000D01*
X69250000Y-84983152D02*
X69250000Y-85983202D01*
X70016798Y-86750000D02*
X71630000Y-86750000D01*
X71630000Y-86750000D02*
X73040000Y-88160000D01*
D26*
%TO.N,Net-(D11-Pad2)*%
X31000000Y-55500000D02*
X33500000Y-58000000D01*
X33500000Y-58000000D02*
X34250000Y-58750000D01*
D27*
%TO.N,IR_TX*%
X44710000Y-96000000D02*
X44710000Y-94110000D01*
X44710000Y-94110000D02*
X44710000Y-94110000D01*
%TO.N,IR_RX*%
X42170000Y-96000000D02*
X43400000Y-94770000D01*
X43400000Y-94770000D02*
X43400000Y-90500000D01*
X43400000Y-90500000D02*
X43400000Y-89800000D01*
X43400000Y-89800000D02*
X42300000Y-88700000D01*
X42300000Y-88700000D02*
X42300000Y-88700000D01*
D26*
%TO.N,IR_SD*%
X34250000Y-73000000D02*
X34250000Y-90620000D01*
X38450001Y-68799999D02*
X34250000Y-73000000D01*
X46799999Y-68799999D02*
X38450001Y-68799999D01*
X34250000Y-90620000D02*
X39630000Y-96000000D01*
X50000000Y-72000000D02*
X46799999Y-68799999D01*
D27*
X39630000Y-93205000D02*
X38700000Y-92275000D01*
X39630000Y-96000000D02*
X39630000Y-93205000D01*
%TO.N,PB0*%
X47850000Y-83575000D02*
X47850000Y-84700000D01*
X47850000Y-84700000D02*
X48862500Y-85712500D01*
X48862500Y-86212500D02*
X49100000Y-86450000D01*
X48862500Y-85712500D02*
X48862500Y-86212500D01*
%TO.N,PB1*%
X48900000Y-84525000D02*
X49500000Y-85125000D01*
X48900000Y-82625000D02*
X48900000Y-84525000D01*
X47800000Y-81525000D02*
X48900000Y-82625000D01*
X49500000Y-85900000D02*
X49875000Y-86275000D01*
X49500000Y-85125000D02*
X49500000Y-85900000D01*
%TO.N,PB4*%
X50515237Y-74084999D02*
X51765237Y-72834999D01*
X48915001Y-74084999D02*
X50515237Y-74084999D01*
X51765237Y-72834999D02*
X55190001Y-72834999D01*
X55190001Y-72834999D02*
X56325000Y-71700000D01*
X48515001Y-75484999D02*
X48250000Y-75750000D01*
X48515001Y-74484999D02*
X48915001Y-74084999D01*
X48515001Y-75484999D02*
X48515001Y-74484999D01*
%TO.N,PA0*%
X40590001Y-81934999D02*
X40500000Y-82025000D01*
X41315001Y-81934999D02*
X40590001Y-81934999D01*
X42325000Y-80925000D02*
X41315001Y-81934999D01*
X45525000Y-80925000D02*
X42325000Y-80925000D01*
%TO.N,PB5*%
X50382685Y-73764989D02*
X51632685Y-72514989D01*
X48620809Y-73764989D02*
X50382685Y-73764989D01*
X52785011Y-72514989D02*
X53600000Y-71700000D01*
X51632685Y-72514989D02*
X52785011Y-72514989D01*
X48255399Y-74130399D02*
X48244601Y-74130399D01*
X48000000Y-74385798D02*
X48255399Y-74130399D01*
X48255399Y-74130399D02*
X48620809Y-73764989D01*
X47850000Y-74525000D02*
X47850000Y-75025000D01*
X48244601Y-74130399D02*
X47850000Y-74525000D01*
%TO.N,PB6*%
X53600000Y-70095112D02*
X50250133Y-73444979D01*
X53600000Y-69575000D02*
X53600000Y-70095112D01*
X48080756Y-73444980D02*
X47025000Y-74500736D01*
X48719980Y-73444980D02*
X48080756Y-73444980D01*
X50250133Y-73444979D02*
X48719980Y-73444980D01*
X47025000Y-74500736D02*
X47025000Y-74925000D01*
X48719980Y-73444980D02*
X48488256Y-73444980D01*
%TO.N,PA4*%
X40125000Y-87600000D02*
X39525000Y-88200000D01*
X40553180Y-87600000D02*
X40125000Y-87600000D01*
%TO.N,PB7*%
X51525000Y-71422202D02*
X51525000Y-70625000D01*
X50307201Y-72640001D02*
X49640001Y-72640001D01*
X50723601Y-72223601D02*
X50307201Y-72640001D01*
X50723601Y-72223601D02*
X51525000Y-71422202D01*
X49000000Y-72000000D02*
X47250000Y-72000000D01*
X49640001Y-72640001D02*
X49000000Y-72000000D01*
%TO.N,PA5*%
X37600000Y-86475000D02*
X37225000Y-86100000D01*
X38275000Y-86475000D02*
X37600000Y-86475000D01*
%TO.N,PB12*%
X54450000Y-83525000D02*
X55475000Y-83525000D01*
X55975000Y-83525000D02*
X56350000Y-83150000D01*
X55475000Y-83525000D02*
X55975000Y-83525000D01*
%TO.N,PA6*%
X39375000Y-84975000D02*
X40050000Y-84300000D01*
X39375000Y-85150000D02*
X39375000Y-84975000D01*
%TO.N,PB13*%
X57300000Y-82650000D02*
X56875000Y-82225000D01*
X57300000Y-83450000D02*
X57300000Y-82650000D01*
%TO.N,PA7*%
X42300000Y-83650000D02*
X41800000Y-84150000D01*
X42750000Y-83650000D02*
X42300000Y-83650000D01*
%TO.N,PB14*%
X52625000Y-82000000D02*
X53650000Y-82000000D01*
X53650000Y-82000000D02*
X54300000Y-82650000D01*
X55500000Y-82650000D02*
X56050000Y-82100000D01*
X54300000Y-82650000D02*
X55500000Y-82650000D01*
%TO.N,PB15*%
X56000000Y-79925000D02*
X55050000Y-80875000D01*
X55050000Y-81350000D02*
X55375000Y-81675000D01*
X55050000Y-81250000D02*
X55050000Y-81350000D01*
X55050000Y-80875000D02*
X55050000Y-81250000D01*
%TO.N,PA15*%
X53600000Y-74700000D02*
X54725000Y-73575000D01*
X51725000Y-74700000D02*
X51600000Y-74825000D01*
X52150000Y-74700000D02*
X51725000Y-74700000D01*
X51675000Y-74700000D02*
X52150000Y-74700000D01*
X52150000Y-74700000D02*
X53600000Y-74700000D01*
%TO.N,PC15*%
X42550000Y-77250000D02*
X44175000Y-78875000D01*
X42125000Y-76825000D02*
X42550000Y-77250000D01*
X41150000Y-76825000D02*
X42125000Y-76825000D01*
D26*
%TO.N,UART2_RX*%
X43500000Y-85500000D02*
X43500000Y-85500000D01*
X57158000Y-94750000D02*
X58420000Y-96012000D01*
X56575699Y-94750000D02*
X57158000Y-94750000D01*
X50175689Y-88349990D02*
X56575699Y-94750000D01*
X43665688Y-88349990D02*
X50175689Y-88349990D01*
X43049999Y-87734301D02*
X43665688Y-88349990D01*
D27*
X43049999Y-86225001D02*
X43625000Y-85650000D01*
X43049999Y-86425001D02*
X43049999Y-86225001D01*
D26*
X43049999Y-86425001D02*
X43049999Y-87734301D01*
%TO.N,UART2_TX*%
X40750000Y-83250000D02*
X40750000Y-83250000D01*
X55880000Y-94620000D02*
X55880000Y-96012000D01*
X50010000Y-88750000D02*
X55880000Y-94620000D01*
X43500000Y-88750000D02*
X50010000Y-88750000D01*
X40750000Y-86000000D02*
X43500000Y-88750000D01*
X40750000Y-83250000D02*
X40750000Y-86000000D01*
%TO.N,BOOT0*%
X45750000Y-71000000D02*
X47000000Y-71000000D01*
D27*
%TO.N,ST_3-4*%
X88929990Y-84782552D02*
X88929990Y-87622808D01*
X88547438Y-84400000D02*
X88929990Y-84782552D01*
X84947438Y-84400000D02*
X88547438Y-84400000D01*
X88929990Y-87622808D02*
X88557842Y-87994956D01*
X49950000Y-75900000D02*
X51050011Y-77000011D01*
X88557842Y-90242158D02*
X89250000Y-90934315D01*
X51050011Y-77000011D02*
X58252552Y-77000010D01*
X88557842Y-87994956D02*
X88557842Y-90242158D01*
X71250000Y-81750000D02*
X71949999Y-81050001D01*
X89250000Y-90934315D02*
X89250000Y-91500000D01*
X58252552Y-77000010D02*
X58932552Y-76320010D01*
X58932552Y-76320010D02*
X64320010Y-76320010D01*
X71949999Y-79750001D02*
X72250001Y-79449999D01*
X69750000Y-81750000D02*
X71250000Y-81750000D01*
X71949999Y-81050001D02*
X71949999Y-79750001D01*
X64320010Y-76320010D02*
X69750000Y-81750000D01*
X72250001Y-79449999D02*
X76491035Y-79449999D01*
X76491035Y-79449999D02*
X78041036Y-81000000D01*
X78041036Y-81000000D02*
X81547438Y-81000000D01*
X81547438Y-81000000D02*
X84947438Y-84400000D01*
%TO.N,ST_1-2*%
X89250000Y-84650000D02*
X89250000Y-85750000D01*
X89250000Y-85750000D02*
X89250000Y-88250000D01*
X50900000Y-76000000D02*
X51580001Y-76680001D01*
X65889998Y-76000000D02*
X69139998Y-79250000D01*
X51580001Y-76680001D02*
X58119999Y-76680001D01*
X58119999Y-76680001D02*
X58800000Y-76000000D01*
X58800000Y-76000000D02*
X65889998Y-76000000D01*
X69139998Y-79250000D02*
X71680002Y-79250000D01*
X81600000Y-80600000D02*
X85050000Y-84050000D01*
X71680002Y-79250000D02*
X71840001Y-79090001D01*
X78093598Y-80600000D02*
X81600000Y-80600000D01*
X71840001Y-79090001D02*
X76583599Y-79090001D01*
X85050000Y-84050000D02*
X88650000Y-84050000D01*
X76583599Y-79090001D02*
X78093598Y-80600000D01*
X88650000Y-84050000D02*
X89250000Y-84650000D01*
D26*
%TO.N,OUT_1*%
X55286002Y-86250000D02*
X54065699Y-86250000D01*
X45032849Y-77217151D02*
X45032849Y-76499999D01*
X45032849Y-76499999D02*
X44750000Y-76217150D01*
X54065699Y-86250000D02*
X45032849Y-77217151D01*
D27*
X81325000Y-85275000D02*
X80900000Y-85700000D01*
X81325000Y-84800000D02*
X81325000Y-85275000D01*
X60709989Y-86209989D02*
X62000000Y-87500000D01*
X55326013Y-86209989D02*
X60709989Y-86209989D01*
X55286002Y-86250000D02*
X55326013Y-86209989D01*
D26*
%TO.N,OUT_2*%
X44250000Y-77250000D02*
X45750000Y-78750000D01*
X45750000Y-78750000D02*
X46750000Y-79750000D01*
X46750000Y-79750000D02*
X46750000Y-87250000D01*
X46750000Y-87250000D02*
X46750000Y-87250000D01*
D27*
X79400000Y-88600000D02*
X81300000Y-86700000D01*
X79400000Y-91100000D02*
X79400000Y-88600000D01*
X81300000Y-86700000D02*
X81300000Y-86800000D01*
X81300000Y-86800000D02*
X82000000Y-87500000D01*
X82000000Y-87500000D02*
X82000000Y-87500000D01*
D26*
%TO.N,OUT_3*%
X50000000Y-83250000D02*
X50000000Y-83250000D01*
X50000000Y-83500000D02*
X49750000Y-83250000D01*
X51100000Y-83850000D02*
X50350000Y-83850000D01*
X53860010Y-86610010D02*
X51100000Y-83850000D01*
X55435123Y-86610010D02*
X53860010Y-86610010D01*
X50350000Y-83850000D02*
X49750000Y-83250000D01*
X55495134Y-86549999D02*
X55435123Y-86610010D01*
X57299999Y-86549999D02*
X55495134Y-86549999D01*
X58500000Y-87750000D02*
X57299999Y-86549999D01*
D27*
X81000000Y-88600000D02*
X80173719Y-89426281D01*
X81300000Y-88600000D02*
X81000000Y-88600000D01*
D26*
%TO.N,OUT_4*%
X50049999Y-81115684D02*
X50040684Y-81115684D01*
X54434315Y-85500000D02*
X50049999Y-81115684D01*
X50040684Y-81115684D02*
X49025000Y-80100000D01*
X55000000Y-85500000D02*
X54434315Y-85500000D01*
D27*
X49409999Y-76940001D02*
X49025000Y-77325000D01*
D26*
X49025000Y-80100000D02*
X49025000Y-77325000D01*
D27*
X49409999Y-75415001D02*
X49900000Y-74925000D01*
X49409999Y-75415001D02*
X49409999Y-76940001D01*
X50700000Y-74925000D02*
X50775000Y-75000000D01*
X50300000Y-74925000D02*
X50700000Y-74925000D01*
X49900000Y-74925000D02*
X50300000Y-74925000D01*
X50300000Y-74925000D02*
X50775000Y-74925000D01*
X80200000Y-90300000D02*
X80109980Y-90390020D01*
X81125000Y-90300000D02*
X80200000Y-90300000D01*
%TO.N,Net-(J4-Pad4)*%
X32600000Y-59800000D02*
X32600000Y-59500000D01*
X31930001Y-58030001D02*
X31600000Y-57700000D01*
X31930001Y-58830001D02*
X31930001Y-58030001D01*
X32600000Y-59500000D02*
X31930001Y-58830001D01*
%TO.N,SWO*%
X48835011Y-76364989D02*
X48750000Y-76450000D01*
X49070010Y-74882552D02*
X48835011Y-75117551D01*
X49070010Y-74579990D02*
X49070010Y-74882552D01*
X49244991Y-74405009D02*
X49070010Y-74579990D01*
X50647789Y-74405009D02*
X49244991Y-74405009D01*
X51477798Y-73575000D02*
X50647789Y-74405009D01*
X48835011Y-75117551D02*
X48835011Y-76364989D01*
X52450000Y-73575000D02*
X51477798Y-73575000D01*
X52725000Y-73575000D02*
X52900000Y-73400000D01*
X52450000Y-73575000D02*
X52725000Y-73575000D01*
%TO.N,MCO*%
X53200000Y-79925000D02*
X53200000Y-79350000D01*
X53625000Y-78925000D02*
X55950000Y-78925000D01*
X53200000Y-79350000D02*
X53625000Y-78925000D01*
%TO.N,Net-(D13-Pad2)*%
X104800000Y-54000000D02*
X104800000Y-55000000D01*
X104800000Y-55000000D02*
X104800000Y-55000000D01*
%TO.N,Net-(D14-Pad2)*%
X83700000Y-84800000D02*
X83900000Y-85000000D01*
X83075000Y-84800000D02*
X83700000Y-84800000D01*
%TO.N,Net-(D15-Pad2)*%
X83800000Y-86700000D02*
X83900000Y-86800000D01*
X83050000Y-86700000D02*
X83800000Y-86700000D01*
%TO.N,Net-(D16-Pad2)*%
X83050000Y-88600000D02*
X83900000Y-88600000D01*
%TO.N,Net-(D17-Pad2)*%
X83700000Y-90300000D02*
X83900000Y-90100000D01*
X82875000Y-90300000D02*
X83700000Y-90300000D01*
%TO.N,Net-(D18-Pad2)*%
X38425000Y-65200000D02*
X37900000Y-65200000D01*
X37900000Y-65200000D02*
X36700000Y-64000000D01*
X36700000Y-64000000D02*
X36700000Y-64000000D01*
%TO.N,Net-(D19-Pad2)*%
X89475000Y-55300000D02*
X89475000Y-56275000D01*
X89475000Y-56275000D02*
X89475000Y-56275000D01*
%TO.N,Net-(D20-Pad1)*%
X38700000Y-90525000D02*
X38525000Y-90525000D01*
X38525000Y-90525000D02*
X38000000Y-90000000D01*
X38000000Y-90000000D02*
X38000000Y-89600000D01*
X38000000Y-89600000D02*
X38000000Y-89600000D01*
%TO.N,Net-(D21-Pad2)*%
X119275000Y-55000000D02*
X119300000Y-55000000D01*
X119300000Y-55000000D02*
X120100000Y-55800000D01*
X120100000Y-55800000D02*
X120100000Y-55800000D01*
%TO.N,Net-(D22-Pad1)*%
X46925000Y-90900000D02*
X46000000Y-90900000D01*
X46000000Y-90900000D02*
X46000000Y-90900000D01*
%TO.N,Net-(D23-Pad2)*%
X42025000Y-92175000D02*
X42600000Y-91600000D01*
X42000000Y-92175000D02*
X42025000Y-92175000D01*
%TO.N,Net-(D24-Pad2)*%
X33350000Y-78500000D02*
X33350000Y-77250000D01*
X33350000Y-77250000D02*
X32900000Y-76800000D01*
X32900000Y-76800000D02*
X32900000Y-76800000D01*
%TO.N,ERROR_LED*%
X46265001Y-81280201D02*
X45602270Y-81942932D01*
X46265001Y-80569799D02*
X46265001Y-81280201D01*
X45602270Y-81942932D02*
X44400000Y-81942932D01*
X45695202Y-80000000D02*
X46265001Y-80569799D01*
X37256402Y-80000000D02*
X45695202Y-80000000D01*
X35756402Y-78500000D02*
X37256402Y-80000000D01*
X35100000Y-78500000D02*
X35756402Y-78500000D01*
%TD*%
D29*
%TO.N,Net-(JP6-Pad2)*%
X103623772Y-95873000D02*
X91927000Y-95873000D01*
X91927000Y-94827000D01*
X94857842Y-94827000D01*
X94898061Y-94835000D01*
X95101939Y-94835000D01*
X95142158Y-94827000D01*
X96057842Y-94827000D01*
X96098061Y-94835000D01*
X96301939Y-94835000D01*
X96342158Y-94827000D01*
X97275000Y-94827000D01*
X97299776Y-94824560D01*
X97323601Y-94817333D01*
X97345557Y-94805597D01*
X97364803Y-94789803D01*
X97380597Y-94770557D01*
X97392333Y-94748601D01*
X97399560Y-94724776D01*
X97401995Y-94701154D01*
X97500851Y-83827000D01*
X103697223Y-83827000D01*
X103623772Y-95873000D01*
%TA.AperFunction,Conductor*%
D30*
G36*
X103623772Y-95873000D02*
G01*
X91927000Y-95873000D01*
X91927000Y-94827000D01*
X94857842Y-94827000D01*
X94898061Y-94835000D01*
X95101939Y-94835000D01*
X95142158Y-94827000D01*
X96057842Y-94827000D01*
X96098061Y-94835000D01*
X96301939Y-94835000D01*
X96342158Y-94827000D01*
X97275000Y-94827000D01*
X97299776Y-94824560D01*
X97323601Y-94817333D01*
X97345557Y-94805597D01*
X97364803Y-94789803D01*
X97380597Y-94770557D01*
X97392333Y-94748601D01*
X97399560Y-94724776D01*
X97401995Y-94701154D01*
X97500851Y-83827000D01*
X103697223Y-83827000D01*
X103623772Y-95873000D01*
G37*
%TD.AperFunction*%
%TD*%
D29*
%TO.N,GND*%
X96573000Y-83857842D02*
X96565000Y-83898061D01*
X96565000Y-84101939D01*
X96573000Y-84142158D01*
X96573000Y-84857842D01*
X96565000Y-84898061D01*
X96565000Y-85101939D01*
X96573000Y-85142158D01*
X96573000Y-85857842D01*
X96565000Y-85898061D01*
X96565000Y-86101939D01*
X96573000Y-86142158D01*
X96573000Y-86857842D01*
X96565000Y-86898061D01*
X96565000Y-87101939D01*
X96573000Y-87142158D01*
X96573000Y-87857842D01*
X96565000Y-87898061D01*
X96565000Y-88101939D01*
X96573000Y-88142158D01*
X96573000Y-88857842D01*
X96565000Y-88898061D01*
X96565000Y-89101939D01*
X96573000Y-89142158D01*
X96573000Y-89857842D01*
X96565000Y-89898061D01*
X96565000Y-90101939D01*
X96573000Y-90142158D01*
X96573000Y-90857842D01*
X96565000Y-90898061D01*
X96565000Y-91101939D01*
X96573000Y-91142158D01*
X96573000Y-91857842D01*
X96565000Y-91898061D01*
X96565000Y-92101939D01*
X96573000Y-92142158D01*
X96573000Y-92857842D01*
X96565000Y-92898061D01*
X96565000Y-93101939D01*
X96573000Y-93142158D01*
X96573000Y-93857842D01*
X96565000Y-93898061D01*
X96565000Y-93965000D01*
X96498061Y-93965000D01*
X96457842Y-93973000D01*
X95742158Y-93973000D01*
X95701939Y-93965000D01*
X95498061Y-93965000D01*
X95457842Y-93973000D01*
X94742158Y-93973000D01*
X94701939Y-93965000D01*
X94498061Y-93965000D01*
X94457842Y-93973000D01*
X91927000Y-93973000D01*
X91927000Y-83827000D01*
X96573000Y-83827000D01*
X96573000Y-83857842D01*
%TA.AperFunction,Conductor*%
D30*
G36*
X96573000Y-83857842D02*
G01*
X96565000Y-83898061D01*
X96565000Y-84101939D01*
X96573000Y-84142158D01*
X96573000Y-84857842D01*
X96565000Y-84898061D01*
X96565000Y-85101939D01*
X96573000Y-85142158D01*
X96573000Y-85857842D01*
X96565000Y-85898061D01*
X96565000Y-86101939D01*
X96573000Y-86142158D01*
X96573000Y-86857842D01*
X96565000Y-86898061D01*
X96565000Y-87101939D01*
X96573000Y-87142158D01*
X96573000Y-87857842D01*
X96565000Y-87898061D01*
X96565000Y-88101939D01*
X96573000Y-88142158D01*
X96573000Y-88857842D01*
X96565000Y-88898061D01*
X96565000Y-89101939D01*
X96573000Y-89142158D01*
X96573000Y-89857842D01*
X96565000Y-89898061D01*
X96565000Y-90101939D01*
X96573000Y-90142158D01*
X96573000Y-90857842D01*
X96565000Y-90898061D01*
X96565000Y-91101939D01*
X96573000Y-91142158D01*
X96573000Y-91857842D01*
X96565000Y-91898061D01*
X96565000Y-92101939D01*
X96573000Y-92142158D01*
X96573000Y-92857842D01*
X96565000Y-92898061D01*
X96565000Y-93101939D01*
X96573000Y-93142158D01*
X96573000Y-93857842D01*
X96565000Y-93898061D01*
X96565000Y-93965000D01*
X96498061Y-93965000D01*
X96457842Y-93973000D01*
X95742158Y-93973000D01*
X95701939Y-93965000D01*
X95498061Y-93965000D01*
X95457842Y-93973000D01*
X94742158Y-93973000D01*
X94701939Y-93965000D01*
X94498061Y-93965000D01*
X94457842Y-93973000D01*
X91927000Y-93973000D01*
X91927000Y-83827000D01*
X96573000Y-83827000D01*
X96573000Y-83857842D01*
G37*
%TD.AperFunction*%
%TD*%
M02*
